# AST/ASF file generated using VICON BodyLanguage
# -----------------------------------------------
:version 1.10
:name VICON
:units
  mass 1.0
  length 0.45
  angle deg
:documentation
   .ast/.asf automatically generated from VICON data using
   VICON BodyBuilder and BodyLanguage model FoxedUp or BRILLIANT.MOD
:root
   order TX TY TZ RX RY RZ
   axis XYZ
   position 0 0 0  
   orientation 0 0 0 
:bonedata
  begin
     id 1 
     name lhipjoint
     direction 0.578396 -0.714046 0.394458 
     length 2.21935 
     axis 0 0 0  XYZ
  end
  begin
     id 2 
     name lfemur
     direction 0.34202 -0.939693 0  
     length 6.39105  
     axis 0 0 20  XYZ
    dof rx ry rz
    limits (-160.0 20.0)
           (-70.0 70.0)
           (-60.0 70.0)
  end
  begin
     id 3 
     name ltibia
     direction 0.34202 -0.939693 0   
     length 6.99037   
     axis 0 0 20   XYZ
    dof rx
    limits (-10.0 170.0)
  end
  begin
     id 4 
     name lfoot
     direction 0.0582372 -0.160005 0.985397   
     length 2.06111   
     axis -90 7.62852e-016 20   XYZ
    dof rx rz
    limits (-45.0 90.0)
           (-70.0 20.0)
  end
  begin
     id 5 
     name ltoes
     direction 1.53556e-011 -4.21875e-011 1   
     length 1.04074   
     axis -90 7.62852e-016 20   XYZ
    dof rx
    limits (-90.0 20.0)
  end
  begin
     id 6 
     name rhipjoint
     direction -0.558179 -0.726269 0.40121   
     length 2.182  
     axis 0 0 0  XYZ 
  end
  begin
     id 7 
     name rfemur
     direction -0.34202 -0.939693 0   
     length 6.51172   
     axis 0 0 -20   XYZ
    dof rx ry rz
    limits (-160.0 20.0)
           (-70.0 70.0)
           (-70.0 60.0)
  end
  begin
     id 8 
     name rtibia
     direction -0.34202 -0.939693 0   
     length 7.02607   
     axis 0 0 -20   XYZ
    dof rx
    limits (-10.0 170.0)
 end
 begin
     id 9 
     name rfoot
     direction -0.0788856 -0.216737 0.973038   
     length 1.96734  
     axis -90 -7.62852e-016 -20   XYZ
    dof rx rz
    limits (-45.0 90.0)
           (-20.0 70.0)
  end
  begin
     id 10 
     name rtoes
     direction -1.53567e-011 -4.21783e-011 1   
     length 0.990825   
     axis -90 -7.62852e-016 -20   XYZ
    dof rx
    limits (-90.0 20.0)
  end
  begin
     id 11 
     name lowerback
     direction 0.00668177 0.999323 -0.0361741   
     length 1.7655   
     axis 0 0 0   XYZ
    dof rx ry rz
    limits (-20.0 45.0)
           (-30.0 30.0)
           (-30.0 30.0)
  end
  begin
     id 12 
     name upperback
     direction -0.00222086 0.99851 0.0545167   
     length 1.74912   
     axis 0 0 0   XYZ
    dof rx ry rz
    limits (-20.0 45.0)
           (-30.0 30.0)
           (-30.0 30.0)
  end
  begin
     id 13 
     name thorax
     direction -0.00733971 0.997496 0.0703443   
     length 1.75715   
     axis 0 0 0   XYZ
    dof rx ry rz
    limits (-20.0 45.0)
           (-30.0 30.0)
           (-30.0 30.0)
  end
  begin
     id 14 
     name lowerneck
     direction 0.0279797 0.994795 0.0979765   
     length 1.46939   
     axis 0 0 0   XYZ
    dof rx ry rz
    limits (-20.0 45.0)
           (-30.0 30.0)
           (-30.0 30.0)
  end
  begin
     id 15 
     name upperneck
     direction 0.00339187 0.976776 -0.214238   
     length 1.48018   
     axis 0 0 0   XYZ
    dof rx ry rz
    limits (-20.0 45.0)
           (-30.0 30.0)
           (-30.0 30.0)
  end
  begin
     id 16
     name head
     direction -0.00263506 0.996603 -0.0823096  
     length 1.4976  
     axis 0 0 0   XYZ
    dof rx ry rz
    limits (-20.0 45.0)
           (-30.0 30.0)
           (-30.0 30.0)
  end
  begin
     id 17 
     name lclavicle
     direction 0.894044 0.44508 -0.0508781  
     length 3.03024  
     axis 0 0 0   XYZ
    dof ry rz
    limits (-20.0 10.0)
           (0.0 20.0)
  end
  begin
     id 18 
     name lhumerus
     direction 1 -4.48961e-011 -2.39475e-018   
     length 4.4661   
     axis 180 -30 -90   XYZ
    dof rx ry rz
    limits (-60.0 90.0)
           (-90.0 90.0)
           (-90.0 90.0)
  end
  begin
     id 19
     name lradius
     direction 1 -4.48961e-011 9.29328e-028   
     length 3.41414   
     axis 180 -30 -90   XYZ
    dof rx
    limits (-10.0 170.0)
  end
  begin
     id 20
     name lwrist
     direction 1 -4.48985e-011 1.53461e-026   
     length 1.70707   
     axis -1.09697e-014 90 90   XYZ
    dof ry
    limits (-180.0 0.0)
 end
  begin
     id 21 
     name lhand
     direction 1 -4.48966e-011 3.06923e-026   
     length 0.328298   
     axis -1.95843e-014 90 90   XYZ
    dof rx rz
    limits (-90.0 90.0)
           (-45.0 45.0)
  end
  begin
     id 22 
     name lfingers
     direction 1 -4.48893e-011 6.13845e-026   
     length 0.264682   
     axis -3.91686e-014 90 90   XYZ
    dof rx
    limits (0.0 90.0)
  end
  begin
     id 23
     name lthumb
     direction 0.707107 -6.34876e-011 0.707107   
     length 0.380032   
     axis -90 45 2.85299e-015   XYZ
    dof rx rz
    limits (-45.0 45.0)
           (-45.0 45.0)
  end
  begin
     id 24 
     name rclavicle
     direction -0.936955 0.347862 -0.0332887   
     length 3.26927  
     axis 0 0 0   XYZ 
    dof ry rz
    limits (-10.0 20.0)
           (-20.0 0.0)
  end
  begin
     id 25 
     name rhumerus
     direction -1 -4.4896e-011 1.78637e-018  
     length 4.40431   
     axis 180 30 90   XYZ
    dof rx ry rz
    limits (-90.0 60.0)
           (-90.0 90.0)
           (-90.0 90.0)
  end
  begin
     id 26 
     name rradius
     direction -1 -4.48955e-011 9.34036e-027   
     length 3.04688   
     axis 180 30 90   XYZ
    dof rx
    limits (-10.0 170.0)
  end
  begin
     id 27 
     name rwrist
     direction -1 -4.49011e-011 1.53461e-026   
     length 1.52344   
     axis -1.09697e-014 -90 -90   XYZ
    dof ry
    limits (-180.0 0.0)
  end
  begin
     id 28
     name rhand
     direction -1 -4.48834e-011 3.06923e-026   
     length 0.500489   
     axis -1.95843e-014 -90 -90   XYZ
    dof rx rz
    limits (-90.0 90.0)
           (-45.0 45.0)
  end
  begin
     id 29
     name rfingers
     direction -1 -4.48967e-011 6.13845e-026   
     length 0.403507   
     axis -3.91686e-014 -90 -90   XYZ
    dof rx
    limits (0.0 90.0)
  end
  begin
     id 30
     name rthumb
     direction -0.707107 -6.34826e-011 0.707107   
     length 0.579358   
     axis -90 -45 -2.85299e-015   XYZ
    dof rx rz
    limits (-45.0 45.0)
           (-45.0 45.0)
  end
:hierarchy
  begin
    root lhipjoint rhipjoint lowerback
    lhipjoint lfemur
    lfemur ltibia
    ltibia lfoot
    lfoot ltoes
    rhipjoint rfemur
    rfemur rtibia
    rtibia rfoot
    rfoot rtoes
    lowerback upperback
    upperback thorax
    thorax lowerneck lclavicle rclavicle
    lowerneck upperneck
    upperneck head
    lclavicle lhumerus
    lhumerus lradius
    lradius lwrist
    lwrist lhand lthumb
    lhand lfingers
    rclavicle rhumerus
    rhumerus rradius
    rradius rwrist
    rwrist rhand rthumb
    rhand rfingers
  end

#!OML:ASF H:\IndianDance\Patient Classification 1\Patient 1\Session 1\dancer.ASF
:FULLY-SPECIFIED
:DEGREES
902
root 2.7178 14.7283 13.0483 -169.349 -2.85518 -174.451
lowerback 9.57677 -2.43412 -2.23451
upperback -6.04538 -3.71273 0.827716
thorax -11.7445 -1.6246 2.89068
lowerneck -18.3154 -6.51849 -3.96884
upperneck 23.4115 -10.092 10.7256
head 11.4671 -3.23514 3.09927
rclavicle -4.96713e-014 -2.06736e-014
rhumerus -24.592 61.834 -32.4781
rradius 106.424
rwrist -27.2364
rhand -3.84164 21.3132
rfingers 7.12502
rthumb 21.906 -7.46661
lclavicle -4.96713e-014 -2.06736e-014
lhumerus 34.8661 -57.4341 -18.0629
lradius 120.875
lwrist 15.4807
lhand -3.15187 -7.26019
lfingers 7.12502
lthumb 22.5682 21.4407
rfemur -32.0311 -16.4987 34.8811
rtibia 50.2599
rfoot -26.9306 -11.5108
rtoes 9.28837
lfemur -52.4219 24.0779 -23.1293
ltibia 55.9344
lfoot -28.0784 12.3092
ltoes -18.8253
903
root 2.73684 14.6942 13.0986 -169.687 -2.13462 -174.022
lowerback 9.77344 -2.128 -2.09566
upperback -5.94831 -3.2701 0.823359
thorax -11.7873 -1.41908 2.73093
lowerneck -18.55 -6.0958 -3.54993
upperneck 23.6067 -9.49592 10.1863
head 11.477 -2.9886 2.92588
rclavicle -2.67365e-014 3.18055e-014
rhumerus -23.5874 61.959 -32.3854
rradius 107.707
rwrist -26.6306
rhand -4.663 21.6291
rfingers 7.12502
rthumb 21.1172 -7.24095
lclavicle -2.67365e-014 3.18055e-014
lhumerus 34.8823 -57.1333 -17.7995
lradius 121.044
lwrist 15.539
lhand -3.26144 -7.41942
lfingers 7.12502
lthumb 22.463 21.2942
rfemur -32.1054 -16.4752 35.2875
rtibia 50.7845
rfoot -26.9241 -10.8754
rtoes 9.09364
lfemur -52.9831 25.2675 -22.5271
ltibia 58.1167
lfoot -28.0102 12.1179
ltoes -17.4915
904
root 2.75432 14.6606 13.1482 -170.023 -1.30895 -173.609
lowerback 9.95357 -1.79235 -2.00916
upperback -5.84346 -2.79422 0.822757
thorax -11.8082 -1.19421 2.59445
lowerneck -18.8028 -5.6684 -3.06245
upperneck 23.8101 -8.90617 9.61456
head 11.496 -2.74203 2.72737
rclavicle -3.18304e-014 -2.54444e-014
rhumerus -22.4969 62.0816 -32.1731
rradius 108.831
rwrist -25.992
rhand -5.44582 21.9444
rfingers 7.12502
rthumb 20.365 -7.00777
lclavicle -3.18304e-014 -2.54444e-014
lhumerus 34.8831 -56.8577 -17.5494
lradius 121.197
lwrist 15.6045
lhand -3.47874 -7.58576
lfingers 7.12502
lthumb 22.2544 21.1529
rfemur -32.103 -16.426 35.6682
rtibia 51.26
rfoot -26.9817 -10.2376
rtoes 8.8688
lfemur -53.4661 26.5215 -21.8924
ltibia 60.3919
lfoot -27.8844 11.9105
ltoes -16.6249
905
root 2.77193 14.6271 13.1963 -170.332 -0.448265 -173.25
lowerback 10.0971 -1.62685 -2.04902
upperback -5.74454 -2.28411 0.832901
thorax -11.8042 -0.824813 2.50514
lowerneck -19.061 -5.23657 -2.50785
upperneck 24.0282 -8.32499 9.0204
head 11.526 -2.49471 2.50796
rclavicle -2.74074e-014 2.38542e-015
rhumerus -21.3501 62.222 -31.8682
rradius 109.802
rwrist -25.3386
rhand -6.17011 22.2336
rfingers 7.12502
rthumb 19.6688 -6.79137
lclavicle -2.74074e-014 2.38542e-015
lhumerus 34.9245 -56.6023 -17.3687
lradius 121.317
lwrist 15.6501
lhand -3.72066 -7.74084
lfingers 7.12502
lthumb 22.0222 21.0254
rfemur -32.0709 -16.339 36.0069
rtibia 51.6997
rfoot -27.0892 -9.6399
rtoes 8.74088
lfemur -53.8864 27.7839 -21.2684
ltibia 62.7127
lfoot -27.7566 11.5963
ltoes -15.8432
906
root 2.79085 14.5932 13.242 -170.602 0.373179 -172.979
lowerback 10.1849 -1.29066 -2.17299
upperback -5.66236 -1.86012 0.815133
thorax -11.785 -0.618382 2.47372
lowerneck -19.3052 -4.80626 -1.91741
upperneck 24.2463 -7.76077 8.44617
head 11.5623 -2.2485 2.2874
rclavicle 7.97623e-015 -4.21423e-014
rhumerus -20.146 62.3834 -31.4667
rradius 110.63
rwrist -24.6874
rhand -6.80787 22.4977
rfingers 7.12502
rthumb 19.0556 -6.58882
lclavicle 7.97623e-015 -4.21423e-014
lhumerus 35.0318 -56.3516 -17.2885
lradius 121.395
lwrist 15.6531
lhand -3.86798 -7.83359
lfingers 7.12502
lthumb 21.8807 20.9492
rfemur -32.0664 -16.2154 36.283
rtibia 52.1412
rfoot -27.2337 -9.14202
rtoes 8.73384
lfemur -54.2551 28.9835 -20.6985
ltibia 65.0311
lfoot -27.6295 11.2293
ltoes -15.0588
907
root 2.81191 14.559 13.2846 -170.833 1.10071 -172.819
lowerback 10.2131 -0.992903 -2.42558
upperback -5.59689 -1.5073 0.774586
thorax -11.7438 -0.436375 2.50192
lowerneck -19.5252 -4.37918 -1.31025
upperneck 24.4609 -7.2153 7.9151
head 11.6035 -2.00294 2.07736
rclavicle -2.21893e-014 -1.51076e-014
rhumerus -18.8972 62.562 -30.9952
rradius 111.3
rwrist -24.0211
rhand -7.35214 22.7412
rfingers 7.12502
rthumb 18.5321 -6.39599
lclavicle -2.21893e-014 -1.51076e-014
lhumerus 35.2191 -56.0986 -17.3335
lradius 121.438
lwrist 15.598
lhand -3.90122 -7.85936
lfingers 7.12502
lthumb 21.8488 20.9272
rfemur -32.1166 -16.0566 36.4768
rtibia 52.611
rfoot -27.4059 -8.77596
rtoes 8.84443
lfemur -54.5694 30.063 -20.2051
ltibia 67.303
lfoot -27.502 10.8399
ltoes -14.0997
908
root 2.83509 14.525 13.3239 -171.034 1.69376 -172.772
lowerback 10.184 -0.745126 -2.78349
upperback -5.54666 -1.23756 0.707175
thorax -11.6816 -0.286564 2.57552
lowerneck -19.7228 -3.96829 -0.726083
upperneck 24.677 -6.70179 7.45392
head 11.6545 -1.76357 1.89247
rclavicle -4.4975e-015 6.36111e-015
rhumerus -17.6156 62.754 -30.4633
rradius 111.824
rwrist -23.3399
rhand -7.80671 22.9184
rfingers 7.12502
rthumb 18.0948 -6.25994
lclavicle -4.4975e-015 6.36111e-015
lhumerus 35.4893 -55.837 -17.5026
lradius 121.457
lwrist 15.5122
lhand -3.7811 -7.82027
lfingers 7.12502
lthumb 21.9642 20.9528
rfemur -32.2301 -15.8685 36.5856
rtibia 53.1197
rfoot -27.5951 -8.55736
rtoes 9.09984
lfemur -54.8165 30.9665 -19.776
ltibia 69.4852
lfoot -27.4263 10.3785
ltoes -12.6029
909
root 2.8598 14.4913 13.3599 -171.213 2.13637 -172.82
lowerback 10.1061 -0.549663 -3.22021
upperback -5.50971 -1.04831 0.621639
thorax -11.6017 -0.169406 2.68922
lowerneck -19.8976 -3.58521 -0.205229
upperneck 24.8943 -6.2279 7.07671
head 11.7156 -1.53604 1.74351
rclavicle -1.98785e-015 4.77083e-015
rhumerus -16.3127 62.9493 -29.8648
rradius 112.208
rwrist -22.6411
rhand -8.15417 23.0649
rfingers 7.12502
rthumb 17.7605 -6.14407
lclavicle -1.98785e-015 4.77083e-015
lhumerus 35.8246 -55.5747 -17.7661
lradius 121.471
lwrist 15.4209
lhand -3.54733 -7.72894
lfingers 7.12502
lthumb 22.1886 21.0176
rfemur -32.4019 -15.6494 36.6174
rtibia 53.6644
rfoot -27.7974 -8.47697
rtoes 9.51374
lfemur -54.983 31.6685 -19.3973
ltibia 71.5325
lfoot -27.3491 10.0313
ltoes -11.0598
910
root 2.88466 14.4585 13.3926 -171.378 2.42737 -172.94
lowerback 9.99218 -0.409057 -3.67984
upperback -5.48115 -0.934515 0.514392
thorax -11.5066 -0.0872677 2.80686
lowerneck -20.0602 -3.23224 0.250546
upperneck 25.1126 -5.79666 6.78304
head 11.7874 -1.32182 1.63015
rclavicle -1.02871e-014 -3.18055e-014
rhumerus -15.0065 63.1439 -29.2269
rradius 112.471
rwrist -21.9407
rhand -8.42989 23.1504
rfingers 7.12502
rthumb 17.4952 -6.08239
lclavicle -1.02871e-014 -3.18055e-014
lhumerus 36.2114 -55.315 -18.1204
lradius 121.494
lwrist 15.3495
lhand -3.27293 -7.62526
lfingers 7.12502
lthumb 22.452 21.0897
rfemur -32.6142 -15.4069 36.5877
rtibia 54.2293
rfoot -28.0041 -8.52528
rtoes 10.0391
lfemur -55.0488 32.1482 -19.0358
ltibia 73.4015
lfoot -27.3235 9.71431
ltoes -9.16405
911
root 2.90858 14.4267 13.4225 -171.54 2.58418 -173.083
lowerback 9.86529 -0.315329 -4.10973
upperback -5.45799 -0.876437 0.403384
thorax -11.4074 -0.033981 2.91461
lowerneck -20.2122 -2.9114 0.623546
upperneck 25.3264 -5.40423 6.56685
head 11.8662 -1.12254 1.55369
rclavicle -1.39149e-015 -2.70347e-014
rhumerus -13.7104 63.3328 -28.5483
rradius 112.638
rwrist -21.2691
rhand -8.64106 23.1784
rfingers 7.12502
rthumb 17.2919 -6.07236
lclavicle -1.39149e-015 -2.70347e-014
lhumerus 36.614 -55.0734 -18.5209
lradius 121.545
lwrist 15.3046
lhand -2.9093 -7.50562
lfingers 7.12502
lthumb 22.801 21.1668
rfemur -32.8383 -15.1354 36.5378
rtibia 54.7957
rfoot -28.2054 -8.70129
rtoes 10.6215
lfemur -54.9938 32.4117 -18.6321
ltibia 75.0511
lfoot -27.2951 9.53655
ltoes -7.45785
912
root 2.93048 14.3956 13.45 -171.702 2.62782 -173.198
lowerback 9.74281 -0.256373 -4.45325
upperback -5.44077 -0.849549 0.300852
thorax -11.316 -0.00145404 2.98919
lowerneck -20.3499 -2.6268 0.908799
upperneck 25.5245 -5.05356 6.4241
head 11.9455 -0.941471 1.5129
rclavicle 3.75206e-015 -2.22639e-014
rhumerus -12.4875 63.5041 -27.8795
rradius 112.722
rwrist -20.6633
rhand -8.77197 23.2236
rfingers 7.12502
rthumb 17.1659 -6.03815
lclavicle 3.75206e-015 -2.22639e-014
lhumerus 37.042 -54.8542 -18.9555
lradius 121.62
lwrist 15.2826
lhand -2.5146 -7.3847
lfingers 7.12502
lthumb 23.1797 21.2406
rfemur -33.0581 -14.8455 36.5158
rtibia 55.345
rfoot -28.393 -8.96828
rtoes 11.2715
lfemur -54.814 32.4709 -18.1309
ltibia 76.4423
lfoot -27.285 9.41719
ltoes -5.79862
